<svg width="18" height="19" viewBox="0 0 18 19" fill="none" xmlns="http://www.w3.org/2000/svg">
<path d="M8.92017 4.51998L9.51017 5.89998C9.55017 6.01998 9.66017 6.08998 9.77017 6.09998L11.2702 6.23998C11.5902 6.26998 11.7102 6.65998 11.4802 6.86998L10.3502 7.85998C10.2602 7.93998 10.2202 8.05998 10.2502 8.16998L10.5802 9.63998C10.6502 9.94998 10.3202 10.19 10.0402 10.03L8.75017 9.25998C8.65017 9.19998 8.52017 9.19998 8.42017 9.25998L7.13017 10.03C6.86017 10.19 6.52017 9.94998 6.59017 9.63998L6.92017 8.16998C6.95017 8.05998 6.91017 7.93998 6.82017 7.85998L5.69017 6.86998C5.45017 6.65998 5.58017 6.26998 5.90017 6.23998L7.40017 6.09998C7.52017 6.08998 7.62017 6.01998 7.67017 5.90998L8.26017 4.52998C8.38017 4.22998 8.79017 4.22998 8.92017 4.51998Z" stroke="white" stroke-miterlimit="10" stroke-linecap="round" stroke-linejoin="round"/>
<path d="M15.3875 7.4446C15.4134 3.68906 12.3899 0.623645 8.63432 0.597799C4.87878 0.571953 1.81337 3.59546 1.78752 7.351C1.76167 11.1065 4.78519 14.172 8.54072 14.1978C12.2963 14.2236 15.3617 11.2001 15.3875 7.4446Z" stroke="white" stroke-miterlimit="10" stroke-linecap="round" stroke-linejoin="round"/>
<path d="M7.6601 14.13L5.9701 18.38L3.8301 15.93L0.600098 16.23L2.7401 10.87" stroke="white" stroke-miterlimit="10" stroke-linecap="round" stroke-linejoin="round"/>
<path d="M9.5 14.13L11.2 18.38L13.33 15.93L16.57 16.23L14.42 10.87" stroke="white" stroke-miterlimit="10" stroke-linecap="round" stroke-linejoin="round"/>
</svg>
